<?xml version="1.0" encoding="UTF-8" standalone="no"?>
<!-- Created with Inkscape (http://www.inkscape.org/) -->

<svg
   xmlns:dc="http://purl.org/dc/elements/1.1/"
   xmlns:cc="http://creativecommons.org/ns#"
   xmlns:rdf="http://www.w3.org/1999/02/22-rdf-syntax-ns#"
   xmlns:svg="http://www.w3.org/2000/svg"
   xmlns="http://www.w3.org/2000/svg"
   xmlns:xlink="http://www.w3.org/1999/xlink"
   xmlns:sodipodi="http://sodipodi.sourceforge.net/DTD/sodipodi-0.dtd"
   xmlns:inkscape="http://www.inkscape.org/namespaces/inkscape"
   width="100"
   height="100"
   id="svg2"
   version="1.1"
   inkscape:version="0.48.2 r9819"
   sodipodi:docname="ghost.svg"
   inkscape:export-filename="/Users/jgary/fun/cloney/assets/images/ghost.png"
   inkscape:export-xdpi="27"
   inkscape:export-ydpi="27">
  <defs
     id="defs4">
    <linearGradient
       id="linearGradient3774">
      <stop
         style="stop-color:#d6d6c0;stop-opacity:1;"
         offset="0"
         id="stop3776" />
      <stop
         id="stop3784"
         offset="1"
         style="stop-color:#5e5e5e;stop-opacity:1;" />
    </linearGradient>
    <radialGradient
       inkscape:collect="always"
       xlink:href="#linearGradient3774"
       id="radialGradient3782"
       cx="50.187309"
       cy="49.812691"
       fx="50.187309"
       fy="49.812691"
       r="50.687309"
       gradientUnits="userSpaceOnUse"
       spreadMethod="pad" />
  </defs>
  <sodipodi:namedview
     id="base"
     pagecolor="#ffffff"
     bordercolor="#666666"
     borderopacity="1.0"
     inkscape:pageopacity="0.0"
     inkscape:pageshadow="2"
     inkscape:zoom="4"
     inkscape:cx="42.155893"
     inkscape:cy="58.971688"
     inkscape:document-units="px"
     inkscape:current-layer="layer1"
     showgrid="false"
     inkscape:window-width="1247"
     inkscape:window-height="729"
     inkscape:window-x="0"
     inkscape:window-y="0"
     inkscape:window-maximized="0" />
  <metadata
     id="metadata7">
    <rdf:RDF>
      <cc:Work
         rdf:about="">
        <dc:format>image/svg+xml</dc:format>
        <dc:type
           rdf:resource="http://purl.org/dc/dcmitype/StillImage" />
        <dc:title></dc:title>
      </cc:Work>
    </rdf:RDF>
  </metadata>
  <g
     inkscape:label="Layer 1"
     inkscape:groupmode="layer"
     id="layer1"
     transform="translate(0,-952.36218)">
    <path
       sodipodi:type="arc"
       style="fill:url(#radialGradient3782);fill-rule:evenodd;stroke:#2d2c15;stroke-width:0.50687309;stroke-linecap:butt;stroke-linejoin:miter;stroke-opacity:0.39555555999999997;fill-opacity:1;stroke-miterlimit:4;stroke-dasharray:none"
       id="path2985"
       sodipodi:cx="50.187309"
       sodipodi:cy="49.812691"
       sodipodi:rx="50.187309"
       sodipodi:ry="50.187309"
       d="M 100.37462,49.812691 C 100.37462,77.530376 77.904995,100 50.187309,100 22.469624,100 0,77.530376 0,49.812691 0,22.095005 22.469624,-0.37461853 50.187309,-0.37461853 c 27.717686,0 50.187311,22.46962353 50.187311,50.18730953 z"
       transform="matrix(0.98644021,0,0,0.98644021,0.4932201,953.22502)"
       inkscape:export-filename="/Users/jgary/fun/cloney/assets/images/clone.png"
       inkscape:export-xdpi="26.999897"
       inkscape:export-ydpi="26.999897" />
    <path
       style="fill:none;stroke:#2d2c15;stroke-width:1.14066887000000006px;stroke-linecap:butt;stroke-linejoin:miter;stroke-opacity:1"
       d="m 8.8565841,993.31829 c 5.8946199,3.35568 11.8380379,6.44883 19.5550739,0"
       id="path3813"
       inkscape:connector-curvature="0"
       sodipodi:nodetypes="cc" />
    <path
       sodipodi:nodetypes="cc"
       inkscape:connector-curvature="0"
       id="path3815"
       d="m 70.85267,991.31829 c 5.89462,3.35568 11.838038,6.44883 19.555074,0"
       style="fill:none;stroke:#2d2c15;stroke-width:1.14066887000000006px;stroke-linecap:butt;stroke-linejoin:miter;stroke-opacity:1" />
    <path
       sodipodi:nodetypes="cc"
       inkscape:connector-curvature="0"
       id="path4377"
       d="m 2.8565841,997.31829 c 9.0055489,3.35571 18.0856499,6.44881 29.8754079,0"
       style="fill:none;stroke:#2d2c15;stroke-width:0.91000000000000003;stroke-linecap:butt;stroke-linejoin:miter;stroke-opacity:1;stroke-miterlimit:4;stroke-dasharray:none" />
    <path
       style="fill:none;stroke:#2d2c15;stroke-width:0.91000002999999996;stroke-linecap:butt;stroke-linejoin:miter;stroke-miterlimit:4;stroke-opacity:1;stroke-dasharray:none"
       d="m 64.856584,995.31829 c 9.005549,3.35571 18.08565,6.44881 29.875408,0"
       id="path4887"
       inkscape:connector-curvature="0"
       sodipodi:nodetypes="cc" />
    <path
       sodipodi:nodetypes="cc"
       inkscape:connector-curvature="0"
       id="path4891"
       d="m 35.106584,1025.3183 c 9.005549,3.3557 18.08565,6.4488 29.875408,0"
       style="fill:none;stroke:#2d2c15;stroke-width:0.91000003;stroke-linecap:butt;stroke-linejoin:miter;stroke-miterlimit:4;stroke-opacity:1;stroke-dasharray:none" />
    <path
       style="fill:none;stroke:#2d2c15;stroke-width:0.89467758;stroke-linecap:butt;stroke-linejoin:miter;stroke-miterlimit:4;stroke-opacity:0.79555538;stroke-dasharray:none"
       d="m 31.168736,1033.2559 c 11.34177,2.5755 22.777431,4.9494 37.625688,0"
       id="path4893"
       inkscape:connector-curvature="0"
       sodipodi:nodetypes="cc" />
    <path
       style="fill:none;stroke:#393939;stroke-width:1px;stroke-linecap:butt;stroke-linejoin:miter;stroke-opacity:1"
       d="m 14.25,57 c 0,0 1.25,8 10,12.5"
       id="path4925"
       inkscape:connector-curvature="0"
       transform="translate(0,952.36218)" />
    <path
       style="fill:none;stroke:#393939;stroke-width:1px;stroke-linecap:butt;stroke-linejoin:miter;stroke-opacity:1"
       d="m 78.75,68.25 c 0,0 10.5,0 12.25,-11.25"
       id="path4927"
       inkscape:connector-curvature="0"
       transform="translate(0,952.36218)" />
    <path
       style="fill:none;stroke:#393939;stroke-width:1px;stroke-linecap:butt;stroke-linejoin:miter;stroke-opacity:1"
       d="m 5.75,58.75 c 0,0 1,17.25 16.25,24.75"
       id="path4929"
       inkscape:connector-curvature="0"
       transform="translate(0,952.36218)" />
    <path
       style="fill:none;stroke:#393939;stroke-width:1px;stroke-linecap:butt;stroke-linejoin:miter;stroke-opacity:1"
       d="m 70.75,88 c 0,0 13,-1.25 18,-14"
       id="path4931"
       inkscape:connector-curvature="0"
       transform="translate(0,952.36218)" />
    <path
       inkscape:connector-curvature="0"
       id="path4933"
       d="m 65.444624,961.9093 c 0,0 -13.015117,-8.79675 -30.139248,-1.47443"
       style="fill:none;stroke:#393939;stroke-width:1.44291699px;stroke-linecap:butt;stroke-linejoin:miter;stroke-opacity:1" />
    <path
       style="fill:none;stroke:#393939;stroke-width:1.4139154px;stroke-linecap:butt;stroke-linejoin:miter;stroke-opacity:1"
       d="m 66.459125,966.9238 c 0,0 -16.050471,-6.84931 -37.16825,-1.14802"
       id="path4957"
       inkscape:connector-curvature="0" />
    <path
       style="fill:none;stroke:#777777;stroke-width:0.5;stroke-linecap:butt;stroke-linejoin:miter;stroke-miterlimit:4;stroke-opacity:0.51555559;stroke-dasharray:none"
       d="m -16.75,955.61218 c -0.333333,0.33333 -0.722733,0.61876 -1,1 -0.395166,0.54335 -0.619375,1.19636 -1,1.75 -0.538285,0.78296 -1.202067,1.47376 -1.75,2.25 -1.128026,1.59804 -1.388591,2.27718 -2.25,4 -0.617851,1.2357 -0.382149,0.64645 -0.75,1.75"
       id="path4961"
       inkscape:connector-curvature="0" />
  </g>
  <g
     inkscape:groupmode="layer"
     id="layer2"
     inkscape:label="face">
    <path
       sodipodi:type="arc"
       style="fill:#ffffff;fill-opacity:1;stroke:#2d2c15;stroke-width:2.29999999999999982;stroke-miterlimit:4;stroke-opacity:1;stroke-dasharray:none"
       id="path3787"
       sodipodi:cx="28.582611"
       sodipodi:cy="31.965334"
       sodipodi:rx="6.5753427"
       sodipodi:ry="6.5753427"
       d="m 35.157954,31.965334 a 6.5753427,6.5753427 0 1 1 -13.150686,0 6.5753427,6.5753427 0 1 1 13.150686,0 z"
       transform="translate(-9.5072684,0.95932341)" />
    <path
       transform="matrix(0.6296701,0,0,0.61065968,62.452728,16.154717)"
       d="m 35.157954,31.965334 a 6.5753427,6.5753427 0 1 1 -13.150686,0 6.5753427,6.5753427 0 1 1 13.150686,0 z"
       sodipodi:ry="6.5753427"
       sodipodi:rx="6.5753427"
       sodipodi:cy="31.965334"
       sodipodi:cx="28.582611"
       id="path3811"
       style="fill:#ffffff;fill-opacity:1;stroke:#2d2c15;stroke-width:2.28998261999999997;stroke-miterlimit:4;stroke-opacity:1;stroke-dasharray:none"
       sodipodi:type="arc" />
    <path
       transform="matrix(0.5579525,0,0,1.1852962,34.127604,26.661267)"
       d="m 35.157954,31.965334 a 6.5753427,6.5753427 0 1 1 -13.150686,0 6.5753427,6.5753427 0 1 1 13.150686,0 z"
       sodipodi:ry="6.5753427"
       sodipodi:rx="6.5753427"
       sodipodi:cy="31.965334"
       sodipodi:cx="28.582611"
       id="path4889"
       style="fill:#1b1b00;fill-opacity:1;stroke:#2d2c15;stroke-width:1;stroke-miterlimit:4;stroke-opacity:1;stroke-dasharray:none"
       sodipodi:type="arc" />
  </g>
</svg>
