<?xml version="1.0" encoding="UTF-8" standalone="no"?>
<!-- Created with Inkscape (http://www.inkscape.org/) -->

<svg
   xmlns:dc="http://purl.org/dc/elements/1.1/"
   xmlns:cc="http://creativecommons.org/ns#"
   xmlns:rdf="http://www.w3.org/1999/02/22-rdf-syntax-ns#"
   xmlns:svg="http://www.w3.org/2000/svg"
   xmlns="http://www.w3.org/2000/svg"
   xmlns:xlink="http://www.w3.org/1999/xlink"
   xmlns:sodipodi="http://sodipodi.sourceforge.net/DTD/sodipodi-0.dtd"
   xmlns:inkscape="http://www.inkscape.org/namespaces/inkscape"
   width="100"
   height="100"
   id="svg2"
   version="1.1"
   inkscape:version="0.48.2 r9819"
   sodipodi:docname="spiked_clone.svg"
   inkscape:export-filename="/Users/jgary/fun/cloney/assets/images/spiked_clone.png"
   inkscape:export-xdpi="27"
   inkscape:export-ydpi="27">
  <defs
     id="defs4">
    <linearGradient
       id="linearGradient3774">
      <stop
         style="stop-color:#a8a892;stop-opacity:1;"
         offset="0"
         id="stop3776" />
      <stop
         id="stop3784"
         offset="1"
         style="stop-color:#666666;stop-opacity:1;" />
    </linearGradient>
    <radialGradient
       inkscape:collect="always"
       xlink:href="#linearGradient3774"
       id="radialGradient3782"
       cx="50.187309"
       cy="49.812691"
       fx="50.187309"
       fy="49.812691"
       r="50.687309"
       gradientUnits="userSpaceOnUse"
       spreadMethod="pad" />
  </defs>
  <sodipodi:namedview
     id="base"
     pagecolor="#ffffff"
     bordercolor="#666666"
     borderopacity="1.0"
     inkscape:pageopacity="0.0"
     inkscape:pageshadow="2"
     inkscape:zoom="4"
     inkscape:cx="-14.504839"
     inkscape:cy="56.731419"
     inkscape:document-units="px"
     inkscape:current-layer="layer2"
     showgrid="false"
     inkscape:window-width="1247"
     inkscape:window-height="729"
     inkscape:window-x="0"
     inkscape:window-y="0"
     inkscape:window-maximized="0" />
  <metadata
     id="metadata7">
    <rdf:RDF>
      <cc:Work
         rdf:about="">
        <dc:format>image/svg+xml</dc:format>
        <dc:type
           rdf:resource="http://purl.org/dc/dcmitype/StillImage" />
        <dc:title></dc:title>
      </cc:Work>
    </rdf:RDF>
  </metadata>
  <g
     inkscape:label="Layer 1"
     inkscape:groupmode="layer"
     id="layer1"
     transform="translate(0,-952.36218)">
    <path
       sodipodi:type="arc"
       style="fill:url(#radialGradient3782);fill-rule:evenodd;stroke:#424100;stroke-width:1.01374618999999999;stroke-linecap:butt;stroke-linejoin:miter;stroke-opacity:1;fill-opacity:1.0;stroke-miterlimit:4;stroke-dasharray:none"
       id="path2985"
       sodipodi:cx="50.187309"
       sodipodi:cy="49.812691"
       sodipodi:rx="50.187309"
       sodipodi:ry="50.187309"
       d="M 100.37462,49.812691 C 100.37462,77.530376 77.904995,100 50.187309,100 22.469624,100 0,77.530376 0,49.812691 0,22.095005 22.469624,-0.37461853 50.187309,-0.37461853 c 27.717686,0 50.187311,22.46962353 50.187311,50.18730953 z"
       transform="matrix(0.98644021,0,0,0.98644021,0.4932201,953.22502)"
       inkscape:export-filename="/Users/jgary/fun/cloney/assets/images/clone.png"
       inkscape:export-xdpi="26.999897"
       inkscape:export-ydpi="26.999897" />
    <path
       style="fill:none;stroke:#424100;stroke-width:1.14066887000000006px;stroke-linecap:butt;stroke-linejoin:miter;stroke-opacity:1"
       d="m 8.8565841,993.31829 c 5.8946199,3.35568 11.8380379,6.44883 19.5550739,0"
       id="path3813"
       inkscape:connector-curvature="0"
       sodipodi:nodetypes="cc" />
    <path
       sodipodi:nodetypes="cc"
       inkscape:connector-curvature="0"
       id="path3815"
       d="m 70.85267,993.31829 c 5.89462,3.35568 11.838038,6.44883 19.555074,0"
       style="fill:none;stroke:#424100;stroke-width:1.14066887000000006px;stroke-linecap:butt;stroke-linejoin:miter;stroke-opacity:1" />
    <path
       style="fill:none;stroke:#424100;stroke-width:1px;stroke-linecap:butt;stroke-linejoin:miter;stroke-opacity:1"
       d="m 18.518311,1038.4064 c 0,0 -6.17277,-25.7647 28.44842,-25.7647 34.621191,0 33.547665,24.4227 33.547665,24.4227 z"
       id="path4445"
       inkscape:connector-curvature="0" />
    <path
       style="fill:none;stroke:#424100;stroke-width:1px;stroke-linecap:butt;stroke-linejoin:miter;stroke-opacity:1"
       d="m 18.24993,1033.8439 61.727704,-1.0736"
       id="path4447"
       inkscape:connector-curvature="0" />
    <path
       style="fill:#333333;fill-opacity:1;stroke:#424100;stroke-width:0.26838133;stroke-miterlimit:4;stroke-opacity:1;stroke-dasharray:none"
       d="m 41.848722,1013.3322 c -10.9551,1.1152 -17.776646,4.8414 -21.170126,11.5638 -0.923298,1.8291 -1.784993,4.8222 -2.007852,6.9743 l -0.145908,1.409 2.201502,0.01 c 5.143064,0.014 54.462328,-0.8402 56.491792,-0.9781 2.540178,-0.1727 2.432598,0.1008 1.195615,-3.0402 -1.184469,-3.0076 -2.465735,-4.8853 -5.136945,-7.528 -4.755867,-4.7052 -10.536192,-7.1651 -19.225295,-8.1815 -3.099267,-0.3626 -9.663715,-0.4837 -12.202783,-0.2252 z"
       id="path4467"
       inkscape:connector-curvature="0" />
  </g>
  <g
     inkscape:groupmode="layer"
     id="layer2"
     inkscape:label="face">
    <path
       sodipodi:type="arc"
       style="fill:#d2d28b;fill-opacity:1;stroke:#424100;stroke-width:1;stroke-miterlimit:4;stroke-opacity:1;stroke-dasharray:none"
       id="path3787"
       sodipodi:cx="28.582611"
       sodipodi:cy="31.965334"
       sodipodi:rx="6.5753427"
       sodipodi:ry="6.5753427"
       d="m 35.157954,31.965334 a 6.5753427,6.5753427 0 1 1 -13.150686,0 6.5753427,6.5753427 0 1 1 13.150686,0 z"
       transform="translate(-9.5072684,0.95932341)" />
    <path
       transform="translate(52.492732,0.95932341)"
       d="m 35.157954,31.965334 a 6.5753427,6.5753427 0 1 1 -13.150686,0 6.5753427,6.5753427 0 1 1 13.150686,0 z"
       sodipodi:ry="6.5753427"
       sodipodi:rx="6.5753427"
       sodipodi:cy="31.965334"
       sodipodi:cx="28.582611"
       id="path3811"
       style="fill:#d2d28b;fill-opacity:1;stroke:#424100;stroke-width:1;stroke-miterlimit:4;stroke-opacity:1;stroke-dasharray:none"
       sodipodi:type="arc" />
    <path
       style="fill:#d2d28b;fill-opacity:1;stroke:#424100;stroke-width:0.26838132999999997;stroke-miterlimit:4;stroke-opacity:1;stroke-dasharray:none"
       d="m 42.071836,81.428822 c -12.793138,0.235173 -23.345116,0.512694 -23.448838,0.616712 -0.103723,0.104019 -0.104293,0.976255 -0.0013,1.938305 l 0.187321,1.74918 2.864537,-0.130877 c 1.575495,-0.07198 15.243625,-0.378743 30.373622,-0.681691 15.129997,-0.302947 27.65348,-0.596699 27.829965,-0.652782 0.301945,-0.09595 0.277195,-1.002334 -0.075,-2.746735 l -0.121918,-0.603858 -7.174088,0.04208 c -3.945747,0.02314 -17.6412,0.234494 -30.434339,0.469668 z"
       id="path4463"
       inkscape:connector-curvature="0" />
  </g>
</svg>
